<svg xmlns="http://www.w3.org/2000/svg" xml:space="preserve" id="Layer_1" x="0" y="0" style="enable-background:new 0 0 512 512" version="1.1" viewBox="0 0 512 512">
  <g>
    <path d="M256 500H70c-32.03 0-58-25.97-58-58V256.86c0-32.03 25.97-58 58-58h186c32.03 0 58 25.97 58 58V442C314 474.03 288.03 500 256 500zM70 128 70 128c-32.03 0-58-25.97-58-58v0c0-32.03 25.97-58 58-58h0c32.03 0 58 25.97 58 58v0C128 102.03 102.03 128 70 128zM442 128H256c-32.03 0-58-25.97-58-58v0c0-32.03 25.97-58 58-58h186c32.03 0 58 25.97 58 58v0C500 102.03 474.03 128 442 128zM384 442V256c0-32.03 25.97-58 58-58h0c32.03 0 58 25.97 58 58v186c0 32.03-25.97 58-58 58h0C409.97 500 384 474.03 384 442z" style="fill:none;stroke:#000;stroke-width:24;stroke-linecap:round;stroke-linejoin:round;stroke-miterlimit:10"/>
  </g>
</svg>
