<svg width="256" height="256" viewBox="0 0 256 256" fill="none" xmlns="http://www.w3.org/2000/svg">
<rect width="256" height="256" fill="#6B97FF"/>
<path d="M128.5 224H54.9385C42.2709 224 32 213.729 32 201.061V127.84C32 115.173 42.2709 104.902 54.9385 104.902H128.5C141.168 104.902 151.439 115.173 151.439 127.84V201.061C151.439 213.729 141.168 224 128.5 224ZM54.9385 76.877C42.2709 76.877 32 66.6061 32 53.9385C32 41.2709 42.2709 31 54.9385 31C67.6061 31 77.877 41.2709 77.877 53.9385C77.877 66.6061 67.6061 76.877 54.9385 76.877ZM202.061 76.877H128.5C115.832 76.877 105.561 66.6061 105.561 53.9385C105.561 41.2709 115.832 31 128.5 31H202.061C214.729 31 225 41.2709 225 53.9385C225 66.6061 214.729 76.877 202.061 76.877ZM179.123 201.061V127.5C179.123 114.832 189.394 104.561 202.061 104.561C214.729 104.561 225 114.832 225 127.5V201.061C225 213.729 214.729 224 202.061 224C189.394 224 179.123 213.729 179.123 201.061Z" stroke="white" stroke-width="12" stroke-miterlimit="10" stroke-linecap="round" stroke-linejoin="round"/>
<path d="M71.4375 162.5C73.2843 162.5 74.7812 161.003 74.7812 159.156C74.7812 157.31 73.2843 155.812 71.4375 155.812C69.5908 155.812 68.0938 157.31 68.0938 159.156C68.0938 161.003 69.5908 162.5 71.4375 162.5ZM81.4688 172.531C81.4688 174.378 79.9718 175.875 78.125 175.875C76.2783 175.875 74.7812 174.378 74.7812 172.531C74.7812 170.685 76.2783 169.188 78.125 169.188C79.9718 169.188 81.4688 170.685 81.4688 172.531ZM91.5 175.875C93.3468 175.875 94.8438 174.378 94.8438 172.531C94.8438 170.685 93.3468 169.188 91.5 169.188C89.6533 169.188 88.1562 170.685 88.1562 172.531C88.1562 174.378 89.6533 175.875 91.5 175.875ZM108.219 172.531C108.219 174.378 106.722 175.875 104.875 175.875C103.028 175.875 101.531 174.378 101.531 172.531C101.531 170.685 103.028 169.188 104.875 169.188C106.722 169.188 108.219 170.685 108.219 172.531ZM84.8125 162.5C86.6593 162.5 88.1562 161.003 88.1562 159.156C88.1562 157.31 86.6593 155.812 84.8125 155.812C82.9658 155.812 81.4688 157.31 81.4688 159.156C81.4688 161.003 82.9658 162.5 84.8125 162.5ZM101.531 159.156C101.531 161.003 100.034 162.5 98.1875 162.5C96.3408 162.5 94.8438 161.003 94.8438 159.156C94.8438 157.31 96.3408 155.812 98.1875 155.812C100.034 155.812 101.531 157.31 101.531 159.156ZM111.563 162.5C113.409 162.5 114.906 161.003 114.906 159.156C114.906 157.31 113.409 155.812 111.563 155.812C109.716 155.812 108.219 157.31 108.219 159.156C108.219 161.003 109.716 162.5 111.563 162.5Z" fill="white"/>
<path d="M58.2133 142.438C49.5562 142.438 43.1799 150.537 45.2119 158.952L50.0563 179.014C51.5063 185.019 56.8801 189.25 63.0576 189.25H120.027C126.202 189.25 131.574 185.024 133.026 179.022L137.884 158.96C139.921 150.542 133.544 142.438 124.884 142.438H58.2133ZM51.7126 157.382C50.6966 153.175 53.8847 149.125 58.2133 149.125H91.5489H124.884C129.214 149.125 132.403 153.177 131.384 157.386L126.527 177.449C125.801 180.449 123.114 182.562 120.027 182.562H63.0576C59.9689 182.562 57.282 180.447 56.557 177.445L51.7126 157.382Z" fill="white"/>
</svg>
